<svg xmlns="http://www.w3.org/2000/svg" width="215" height="71" viewBox="0 0 215 71"><defs><mask id="q8o7b" width="2" height="2" x="-1" y="-1"><path fill="#fff" d="M14 5h43v43H14z"/><path d="M35.5 5C47.374 5 57 14.626 57 26.5S47.374 48 35.5 48 14 38.374 14 26.5 23.626 5 35.5 5z"/></mask><filter id="q8o7a" width="99" height="108" x="-14" y="-23" filterUnits="userSpaceOnUse"><feOffset dy="9" in="SourceGraphic" result="FeOffset1028Out"/><feGaussianBlur in="FeOffset1028Out" result="FeGaussianBlur1029Out" stdDeviation="7.2 7.2"/></filter><clipPath id="q8o7c"><path fill="#fff" d="M35.5 5C47.374 5 57 14.626 57 26.5S47.374 48 35.5 48 14 38.374 14 26.5 23.626 5 35.5 5z"/></clipPath></defs><g><g><g><text dominant-baseline="text-before-edge" style="line-height:64px;font-kerning:normal" fill="#333" font-family="'Roboto','Roboto-Medium'" font-size="30" transform="translate(65 8)"><tspan>HealthCare</tspan></text></g></g><g><g filter="url(#q8o7a)"><path fill="none" d="M35.5 5C47.374 5 57 14.626 57 26.5S47.374 48 35.5 48 14 38.374 14 26.5 23.626 5 35.5 5z" mask="url(&quot;#q8o7b&quot;)"/><path fill="#5347e8" fill-opacity=".18" d="M35.5 5C47.374 5 57 14.626 57 26.5S47.374 48 35.5 48 14 38.374 14 26.5 23.626 5 35.5 5z"/></g><path fill="#fff" d="M35.5 5C47.374 5 57 14.626 57 26.5S47.374 48 35.5 48 14 38.374 14 26.5 23.626 5 35.5 5z"/><path fill="none" stroke="#5347e8" stroke-miterlimit="20" stroke-width="8" d="M35.5 5C47.374 5 57 14.626 57 26.5S47.374 48 35.5 48 14 38.374 14 26.5 23.626 5 35.5 5z" clip-path="url(&quot;#q8o7c&quot;)"/></g><g><g><text dominant-baseline="text-before-edge" style="line-height:38px;font-kerning:normal" fill="#5347e8" font-family="'Nunito','Nunito-ExtraBold'" font-size="44" transform="translate(23 -4)"><tspan>+</tspan></text></g></g></g></svg>